<?xml version="1.0" encoding="UTF-8" standalone="no"?>
<!DOCTYPE svg PUBLIC "-//W3C//DTD SVG 1.1//EN" "http://www.w3.org/Graphics/SVG/1.1/DTD/svg11.dtd">
<svg width="100%" height="100%" viewBox="0 0 5345 4500" version="1.1" xmlns="http://www.w3.org/2000/svg" xmlns:xlink="http://www.w3.org/1999/xlink" xml:space="preserve" xmlns:serif="http://www.serif.com/" style="fill-rule:evenodd;clip-rule:evenodd;stroke-linejoin:round;stroke-miterlimit:2;">
    <g transform="matrix(1,0,0,1,-15000.297359,-20803.197432)">
        <g transform="matrix(1,0,0,1,0,5099.419679)">
            <g id="Artboard15" transform="matrix(1.121001,0,0,0.998988,-1847.793592,563.452348)">
                <rect x="15029.507" y="15155.67" width="4767.481" height="4504.561" style="fill:none;"/>
                <g transform="matrix(3.923224,0,0,4.402392,10909.809163,14827.360157)">
                    <path d="M1750.921,458.307L1305.942,458.307L1305.942,330.377L1753.638,330.377C1754.101,330.377 1754.563,330.379 1755.025,330.381C1895.569,331.129 2009.44,445.461 2009.44,586.179C2009.44,727.341 1894.85,841.95 1753.695,841.981L1753.638,841.981L1497.836,841.981L1497.836,522.158L1625.766,522.158L1625.766,583.462C1625.747,584.365 1625.737,585.271 1625.737,586.179C1625.737,587.087 1625.747,587.993 1625.766,588.897L1625.766,714.052L1750.921,714.052C1751.824,714.071 1752.73,714.08 1753.638,714.08L1753.695,714.08C1824.259,714.049 1881.539,656.751 1881.539,586.179C1881.539,516.052 1824.978,459.03 1755.025,458.286C1754.563,458.281 1754.101,458.278 1753.638,458.278C1752.73,458.278 1751.824,458.288 1750.921,458.307Z" style="fill:rgb(0,19,22);"/>
                </g>
            </g>
        </g>
    </g>
</svg>
